Coordinates
nRows=437
nColumns=2
inDegrees=yes
endheader
time	ankle_angle_r	
1.43044	 18.598606	
1.46371	 18.567450	
1.49698	 18.554688	
1.53024	 18.661499	
1.56351	 18.600464	
1.59677	 18.539429	
1.63004	 18.661848	
1.66331	 18.615974	
1.69657	 18.615877	
1.72984	 18.630922	
1.7631	 18.661423	
1.79637	 18.631117	
1.82964	 18.676989	
1.8629	 18.555016	
1.89617	 18.569521	
1.92944	 18.646240	
1.9627	 18.631599	
1.99597	 18.658640	
2.02923	 18.661499	
2.0625	 18.630981	
2.09577	 18.706270	
2.12903	 18.675655	
2.1623	 18.599266	
2.19556	 18.662794	
2.22883	 18.676758	
2.2621	 18.600464	
2.29536	 18.659914	
2.32863	 18.664862	
2.3619	 18.646240	
2.39516	 18.720659	
2.42843	 18.661499	
2.46169	 18.665636	
2.49496	 18.676758	
2.52823	 18.654713	
2.56149	 18.626265	
2.59476	 18.618177	
2.62802	 18.600464	
2.66129	 18.633631	
2.69456	 18.679502	
2.72782	 18.683491	
2.76109	 18.625105	
2.79435	 18.707275	
2.82762	 18.710407	
2.86089	 18.673529	
2.89415	 18.701992	
2.92742	 18.737793	
2.96069	 18.612204	
2.99395	 18.630981	
3.02722	 18.703154	
3.06048	 18.657690	
3.09375	 18.688110	
3.12702	 18.619724	
3.16028	 18.650339	
3.19355	 18.711472	
3.22681	 18.670084	
3.26008	 18.681147	
3.29335	 18.700989	
3.32661	 18.707275	
3.35988	 18.687338	
3.39315	 18.712051	
3.42641	 18.671885	
3.45968	 18.681726	
3.49294	 18.686951	
3.52621	 18.676758	
3.55948	 18.666758	
3.59274	 18.717178	
3.62601	 18.676758	
3.65927	 18.676758	
3.69254	 18.712921	
3.72581	 18.676758	
3.75907	 18.667337	
3.79234	 18.697952	
3.8256	 18.679951	
3.85887	 18.667629	
3.89214	 18.716309	
3.9254	 18.676758	
3.95867	 18.655079	
3.99194	 18.707275	
4.0252	 18.670145	
4.05847	 18.661499	
4.09173	 18.705629	
4.125	 18.675304	
4.15827	 18.668499	
4.19153	 18.669662	
4.2248	 18.637300	
4.25806	 18.685408	
4.29133	 18.676758	
4.3246	 18.562464	
4.35786	 18.722534	
4.39113	 18.676664	
4.4244	 18.684244	
4.45766	 18.615723	
4.49093	 18.645567	
4.52419	 18.646240	
4.55746	 18.714375	
4.59073	 18.646240	
4.62399	 18.569946	
4.65726	 18.700466	
4.69052	 18.683470	
4.72379	 18.676758	
4.75706	 18.689796	
4.79032	 18.646240	
4.82359	 18.628374	
4.85685	 18.655270	
4.89012	 18.652372	
4.92339	 18.692017	
4.95665	 18.640301	
4.98992	 18.701433	
5.02319	 18.651985	
5.05645	 18.686367	
5.08972	 18.682310	
5.12298	 18.682213	
5.15625	 18.696558	
5.18952	 18.717272	
5.22278	 18.702110	
5.25605	 18.732725	
5.28931	 18.697330	
5.32258	 18.692017	
5.35585	 18.702497	
5.38911	 18.702593	
5.42238	 18.641655	
5.45565	 18.661499	
5.48891	 18.713751	
5.52218	 18.681053	
5.55544	 18.622585	
5.58871	 18.661499	
5.62198	 18.623734	
5.65524	 18.630981	
5.68851	 18.627171	
5.72177	 18.600464	
5.75504	 18.683994	
5.78831	 18.692017	
5.82157	 18.600464	
5.85484	 18.658171	
5.8881	 18.588436	
5.92137	 18.630981	
5.95464	 18.670681	
5.9879	 18.609840	
6.02117	 18.603310	
6.05444	 18.732296	
6.0877	 18.658848	
6.12097	 18.613169	
6.15423	 18.694475	
6.1875	 18.672035	
6.22077	 18.585205	
6.25403	 18.630981	
6.2873	 18.583134	
6.32056	 18.619673	
6.35383	 18.588961	
6.3871	 18.600464	
6.42036	 18.630981	
6.45363	 18.673582	
6.4869	 18.612740	
6.52016	 18.618511	
6.55343	 18.615723	
6.58669	 18.630981	
6.61996	 18.693121	
6.65323	 18.664522	
6.68649	 18.571768	
6.71976	 18.645426	
6.75302	 18.720381	
6.78629	 18.662121	
6.81956	 18.737268	
6.85282	 18.722534	
6.88609	 18.707275	
6.91935	 18.738028	
6.95262	 18.752914	
6.98589	 18.661541	
7.01915	 18.676868	
7.05242	 18.752747	
7.08569	 18.692017	
7.11895	 18.782877	
7.15222	 18.737793	
7.18548	 18.707275	
7.21875	 18.753052	
7.25202	 18.753052	
7.28528	 18.721704	
7.31855	 18.738718	
7.35181	 18.753052	
7.38508	 18.721415	
7.41835	 18.768311	
7.45161	 18.766998	
7.48488	 18.676758	
7.51815	 18.740805	
7.55141	 18.753052	
7.58468	 18.724234	
7.61794	 18.724331	
7.65121	 18.753052	
7.68448	 18.709265	
7.71774	 18.753052	
7.75101	 18.681124	
7.78427	 18.689737	
7.81754	 18.694393	
7.85081	 18.699434	
7.88407	 18.679327	
7.91734	 18.709942	
7.9506	 18.636507	
7.98387	 18.615723	
8.01714	 18.664455	
8.0504	 18.600464	
8.08367	 18.630981	
8.11694	 18.634228	
8.1502	 18.673414	
8.18347	 18.573385	
8.21673	 18.661499	
8.25	 18.634615	
8.28327	 18.676758	
8.31653	 18.653893	
8.3498	 18.569946	
8.38306	 18.657478	
8.41633	 18.680874	
8.4496	 18.630981	
8.48286	 18.620033	
8.51613	 18.670313	
8.5494	 18.641737	
8.58266	 18.600464	
8.61593	 18.701410	
8.64919	 18.651033	
8.68246	 18.569946	
8.71573	 18.610737	
8.74899	 18.610640	
8.78226	 18.605644	
8.81552	 18.646240	
8.84879	 18.600464	
8.88206	 18.594994	
8.91532	 18.661499	
8.94859	 18.676758	
8.98185	 18.619461	
9.01512	 18.682615	
9.04839	 18.658148	
9.08165	 18.695175	
9.11492	 18.676758	
9.14819	 18.692017	
9.18145	 18.722534	
9.21472	 18.737793	
9.24798	 18.700743	
9.28125	 18.720535	
9.31452	 18.735989	
9.34778	 18.708887	
9.38105	 18.737793	
9.41431	 18.730776	
9.44758	 18.715420	
9.48085	 18.737793	
9.51411	 18.745100	
9.54738	 18.699421	
9.58065	 18.745293	
9.61391	 18.745455	
9.64718	 18.730099	
9.68044	 18.753052	
9.71371	 18.745680	
9.74698	 18.699291	
9.78024	 18.759327	
9.81351	 18.751955	
9.84677	 18.700291	
9.88004	 18.753052	
9.91331	 18.768311	
9.94657	 18.715839	
9.97984	 18.731195	
10.0131	 18.746550	
10.0464	 18.716129	
10.0796	 18.713583	
10.1129	 18.762098	
10.1462	 18.692017	
10.1794	 18.640223	
10.2127	 18.646240	
10.246	 18.600464	
10.2792	 18.692017	
10.3125	 18.634977	
10.3458	 18.630981	
10.379	 18.656061	
10.4123	 18.625641	
10.4456	 18.595219	
10.4788	 18.620871	
10.5121	 18.676758	
10.5454	 18.630981	
10.5786	 18.717676	
10.6119	 18.676758	
10.6452	 18.676758	
10.6784	 18.681326	
10.7117	 18.683075	
10.745	 18.681131	
10.7782	 18.696295	
10.8115	 18.676758	
10.8448	 18.699106	
10.878	 18.729818	
10.9113	 18.665390	
10.9446	 18.661499	
10.9778	 18.710974	
11.0111	 18.668701	
11.0444	 18.673254	
11.0776	 18.719128	
11.1109	 18.692017	
11.1442	 18.664713	
11.1774	 18.704159	
11.2107	 18.676758	
11.244	 18.661499	
11.2772	 18.697672	
11.3105	 18.714342	
11.3437	 18.651508	
11.377	 18.712351	
11.4103	 18.694458	
11.4435	 18.692017	
11.4768	 18.722534	
11.5101	 18.676758	
11.5433	 18.682919	
11.5766	 18.739750	
11.6099	 18.678617	
11.6431	 18.665026	
11.6764	 18.708942	
11.7097	 18.664640	
11.7429	 18.661499	
11.7762	 18.675381	
11.8095	 18.604305	
11.8427	 18.613356	
11.876	 18.662586	
11.9093	 18.602444	
11.9425	 18.675863	
11.9758	 18.678352	
12.0091	 18.631681	
12.0423	 18.737190	
12.0756	 18.661499	
12.1089	 18.691607	
12.1421	 18.737793	
12.1754	 18.753052	
12.2087	 18.707275	
12.2419	 18.737793	
12.2752	 18.768164	
12.3085	 18.707106	
12.3417	 18.768044	
12.375	 18.767948	
12.4083	 18.692017	
12.4415	 18.737236	
12.4748	 18.753052	
12.5081	 18.722534	
12.5413	 18.737793	
12.5746	 18.753052	
12.6079	 18.707275	
12.6411	 18.767174	
12.6744	 18.740259	
12.7077	 18.692017	
12.7409	 18.750198	
12.7742	 18.739317	
12.8075	 18.707275	
12.8407	 18.737793	
12.874	 18.709089	
12.9073	 18.707275	
12.9405	 18.739799	
12.9738	 18.696224	
13.0071	 18.694218	
13.0403	 18.709572	
13.0736	 18.648634	
13.1069	 18.648731	
13.1401	 18.689430	
13.1734	 18.608515	
13.2067	 18.664280	
13.2399	 18.646240	
13.2732	 18.566973	
13.3065	 18.634052	
13.3397	 18.615723	
13.373	 18.591732	
13.4062	 18.600464	
13.4395	 18.600464	
13.4728	 18.577055	
13.506	 18.581554	
13.5393	 18.634729	
13.5726	 18.585205	
13.6058	 18.593086	
13.6391	 18.630981	
13.6724	 18.600464	
13.7056	 18.597897	
13.7389	 18.600464	
13.7722	 18.646240	
13.8054	 18.569946	
13.8387	 18.635599	
13.872	 18.615723	
13.9052	 18.554688	
13.9385	 18.661499	
13.9718	 18.635986	
14.005	 18.585205	
14.0383	 18.702078	
14.0716	 18.630981	
14.1048	 18.610332	
14.1381	 18.641956	
14.1714	 18.604553	
14.2046	 18.625301	
14.2379	 18.667276	
14.2712	 18.661499	
14.3044	 18.695333	
14.3377	 18.731726	
14.371	 18.676758	
14.4042	 18.713537	
14.4375	 18.737793	
14.4708	 18.700821	
14.504	 18.746500	
14.5373	 18.731146	
14.5706	 18.729279	
14.6038	 18.722534	
14.6371	 18.746115	
14.6704	 18.715500	
14.7036	 18.753052	
14.7369	 18.738596	
14.7702	 18.722534	
14.8034	 18.753468	
14.8367	 18.760571	
14.87	 18.714890	
14.9032	 18.760763	
14.9365	 18.760860	
14.9698	 18.722534	
15.003	 18.753052	
15.0363	 18.768311	
15.0696	 18.707275	
15.1028	 18.744761	
15.1361	 18.754570	
15.1694	 18.685244	
15.2026	 18.744471	
15.2359	 18.768311	
15.2692	 18.731310	
15.3024	 18.663984	
15.3357	 18.680370	
15.369	 18.661499	
15.4022	 18.698114	
15.4355	 18.624981	
15.4687	 18.692017	
15.502	 18.625174	
15.5353	 18.720661	
15.5685	 18.655886	
15.6018	 18.650465	
15.6351	 18.599463	
15.6683	 18.646240	
15.7016	 18.676758	
15.7349	 18.697016	
15.7681	 18.681950	
15.8014	 18.666435	
15.8347	 18.666340	
15.8679	 18.635725	
15.9012	 18.676758	
15.9345	 18.647848	
